<svg xmlns="http://www.w3.org/2000/svg" width="1241" height="750" viewBox="0 0 1241 750">
  <g>
    <path d="M 879.83 741.42 C871.60,743.29 851.57,744.16 843.50,743.00 C828.17,740.81 815.21,736.69 803.01,730.15 C790.73,723.57 779.68,714.21 769.81,702.06 C762.31,692.82 766.61,701.19 695.30,557.00 C669.78,505.39 541.11,247.78 532.48,231.00 C524.81,216.10 517.70,208.44 506.41,202.88 C499.58,199.52 499.45,199.50 485.52,199.53 C470.39,199.56 465.72,200.52 453.22,206.12 C449.70,207.71 446.63,209.00 446.41,209.00 C446.18,209.00 446.00,202.27 446.00,194.05 L 446.00 179.10 L 452.25 176.15 C477.01,164.45 502.87,165.77 517.18,179.47 C521.26,183.37 526.75,190.17 528.89,193.96 C534.87,204.55 690.72,517.14 741.06,619.50 C760.25,658.53 764.87,666.62 773.79,676.79 C788.49,693.54 806.47,703.91 832.50,710.64 C843.18,713.40 871.35,713.17 883.17,710.23 C906.88,704.33 929.44,690.92 943.54,674.34 C948.57,668.42 960.00,651.90 960.00,650.55 C960.00,650.29 963.60,642.59 968.00,633.44 C972.40,624.28 976.00,616.66 976.00,616.50 C976.00,616.34 979.55,608.85 983.88,599.86 C1004.49,557.11 1008.28,549.17 1010.19,544.75 C1011.32,542.14 1012.87,540.00 1013.62,540.00 C1014.72,540.00 1015.00,542.66 1015.00,553.25 L 1014.99 566.50 L 1006.89 583.00 C1002.43,592.08 997.53,602.20 996.00,605.50 C994.46,608.80 990.41,617.35 987.00,624.50 C983.59,631.65 979.55,640.20 978.02,643.50 C976.49,646.80 970.73,658.72 965.22,670.00 C956.43,687.96 954.16,691.73 946.85,700.46 C942.26,705.94 935.35,713.07 931.50,716.30 C923.28,723.19 909.98,731.43 902.67,734.16 C892.06,738.13 886.32,739.95 879.83,741.42 ZM 441.44 741.89 C432.40,743.55 411.02,743.08 400.50,741.00 C389.91,738.90 374.61,733.37 366.05,728.53 C352.17,720.68 337.88,707.32 328.62,693.55 C325.59,689.03 300.06,638.94 270.50,579.50 C214.86,467.62 202.59,443.06 133.72,305.62 C93.39,225.14 90.31,219.33 84.72,213.36 C80.40,208.74 76.69,205.97 71.18,203.25 L 63.60 199.50 L 50.05 199.51 C35.19,199.53 26.36,201.39 17.34,206.43 C14.82,207.84 12.35,209.00 11.87,209.00 C11.39,209.00 11.00,202.02 11.00,193.50 C11.00,184.98 11.34,178.10 11.75,178.22 C12.16,178.34 13.62,177.71 15.00,176.80 C18.98,174.20 32.49,170.05 40.84,168.88 C60.52,166.12 77.01,172.26 87.53,186.26 C90.01,189.55 97.94,204.01 105.15,218.38 C150.06,307.85 238.56,485.01 277.55,563.48 C302.69,614.06 325.33,658.61 327.87,662.48 C333.61,671.22 346.22,684.49 354.93,690.95 C361.76,696.01 376.50,703.78 383.50,706.01 C385.70,706.71 388.62,707.66 390.00,708.13 C395.07,709.85 406.75,711.86 415.50,712.52 C427.48,713.42 448.93,711.02 456.50,707.94 C457.60,707.49 459.62,706.81 461.00,706.43 C465.60,705.16 480.44,697.72 486.42,693.68 C494.15,688.47 506.97,676.19 513.21,668.00 C515.94,664.42 522.02,653.62 526.72,644.00 C531.43,634.38 543.59,609.62 553.75,589.00 C563.91,568.38 573.03,549.64 574.03,547.36 C577.79,538.73 579.07,540.53 580.02,555.80 C580.72,567.13 580.69,567.36 578.06,571.40 C575.72,575.00 562.45,601.77 528.68,671.00 C518.31,692.28 512.80,700.44 501.08,711.93 C485.38,727.33 464.97,737.58 441.44,741.89 ZM 1140.87 344.47 C1136.32,346.07 1124.32,347.18 1120.00,346.40 C1104.37,343.58 1091.17,333.35 1082.29,317.17 C1079.98,312.95 1070.92,295.33 1062.16,278.00 C1031.59,217.55 1028.77,212.56 1022.23,207.31 C1014.83,201.36 1005.25,198.00 995.70,198.00 C988.73,198.01 974.59,200.55 967.36,203.09 C958.68,206.15 954.10,207.45 953.78,206.95 C953.63,206.70 953.75,199.75 954.05,191.50 C954.36,183.25 954.69,176.85 954.80,177.27 C954.91,177.70 956.01,177.40 957.25,176.61 C960.88,174.28 974.38,170.11 982.24,168.89 C986.23,168.27 993.56,167.97 998.51,168.23 C1008.45,168.74 1014.47,170.83 1021.02,176.02 C1028.53,181.96 1029.06,182.90 1066.50,256.50 C1086.12,295.07 1086.01,294.89 1094.29,302.60 C1102.08,309.84 1108.60,313.41 1116.96,314.99 C1135.11,318.43 1150.47,312.93 1164.26,298.04 C1169.41,292.47 1172.09,288.10 1179.64,272.90 C1193.22,245.54 1224.75,181.60 1228.89,173.00 L 1232.50 165.50 L 1232.78 179.50 L 1232.80 180.26 C1232.92,186.29 1233.00,189.97 1232.39,193.53 C1231.41,199.24 1228.66,204.66 1221.50,219.00 C1216.97,228.07 1209.76,242.70 1205.47,251.50 C1183.87,295.84 1171.85,319.29 1168.19,324.24 C1161.81,332.88 1150.96,340.91 1140.87,344.47 Z" fill="rgb(10,4,3)"/>
    <path d="M 579.57 549.94 C578.64,540.23 577.24,540.00 574.03,547.36 C573.03,549.64 563.91,568.38 553.75,589.00 C543.59,609.62 531.43,634.38 526.72,644.00 C522.02,653.62 515.94,664.42 513.21,668.00 C506.97,676.19 494.15,688.47 486.42,693.68 C480.44,697.72 465.60,705.16 461.00,706.43 C459.62,706.81 457.60,707.49 456.50,707.94 C448.93,711.02 427.48,713.42 415.50,712.52 C406.75,711.86 395.07,709.85 390.00,708.13 C388.62,707.66 385.70,706.71 383.50,706.01 C376.50,703.78 361.76,696.01 354.93,690.95 C346.22,684.49 333.61,671.22 327.87,662.48 C325.33,658.61 302.69,614.06 277.55,563.48 C238.56,485.01 150.06,307.85 105.15,218.38 C97.94,204.01 90.01,189.55 87.53,186.26 C77.01,172.26 60.52,166.12 40.84,168.88 C32.49,170.05 18.98,174.20 15.00,176.80 C13.62,177.71 12.16,178.34 11.75,178.22 C11.34,178.10 11.00,184.98 11.00,193.50 C11.00,202.02 11.39,209.00 11.87,209.00 C11.39,209.00 11.00,202.23 11.00,193.96 L 11.00 178.91 L 39.61 121.71 C59.43,82.07 70.01,62.05 74.04,56.50 C81.04,46.87 93.29,34.70 101.50,29.22 C122.78,15.04 151.73,6.69 173.76,8.38 C211.00,11.24 242.66,29.43 262.72,59.50 C267.18,66.19 327.53,186.35 434.99,402.50 C462.33,457.50 487.34,507.90 490.57,514.50 C497.66,529.01 500.52,533.38 506.49,538.88 C519.83,551.18 543.54,552.19 568.37,541.53 C572.89,539.59 577.13,538.00 577.79,538.00 C578.46,538.00 579.03,539.24 579.06,540.75 C579.09,541.83 579.30,545.52 579.57,549.94 ZM 1014.81 543.72 C1014.62,540.90 1014.26,540.00 1013.62,540.00 C1012.87,540.00 1011.32,542.14 1010.19,544.75 C1008.28,549.17 1004.49,557.11 983.88,599.86 C979.55,608.85 976.00,616.34 976.00,616.50 C976.00,616.66 972.40,624.28 968.00,633.44 C963.60,642.59 960.00,650.29 960.00,650.55 C960.00,651.90 948.57,668.42 943.54,674.34 C929.44,690.92 906.88,704.33 883.17,710.23 C871.35,713.17 843.18,713.40 832.50,710.64 C806.47,703.91 788.49,693.54 773.79,676.79 C764.87,666.62 760.25,658.53 741.06,619.50 C690.72,517.14 534.87,204.55 528.89,193.96 C526.75,190.17 521.26,183.37 517.18,179.47 C502.87,165.77 477.01,164.45 452.25,176.15 L 446.02 179.09 L 446.02 178.50 L 474.52 121.62 C490.19,90.33 505.01,61.98 507.44,58.62 C524.97,34.39 552.11,17.66 582.50,12.34 C594.85,10.19 620.16,11.01 631.50,13.95 C658.09,20.83 680.13,35.27 696.02,56.23 C702.54,64.84 699.62,59.03 867.50,396.54 C933.73,529.68 931.77,525.81 934.96,530.45 C939.39,536.88 945.97,542.80 952.00,545.78 C957.14,548.32 958.35,548.50 970.50,548.48 C985.22,548.46 993.22,546.65 1005.93,540.47 C1009.89,538.54 1013.55,537.22 1014.07,537.54 C1014.37,537.73 1014.64,540.15 1014.81,543.72 ZM 1232.74 177.12 L 1232.50 165.50 L 1228.89 173.00 C1224.75,181.60 1193.22,245.54 1179.64,272.90 C1172.09,288.10 1169.41,292.47 1164.26,298.04 C1150.47,312.93 1135.11,318.43 1116.96,314.99 C1108.60,313.41 1102.08,309.84 1094.29,302.60 C1086.01,294.89 1086.12,295.07 1066.50,256.50 C1029.06,182.90 1028.53,181.96 1021.02,176.02 C1014.47,170.83 1008.45,168.74 998.51,168.23 C993.56,167.97 986.23,168.27 982.24,168.89 C974.38,170.11 960.88,174.28 957.25,176.61 C956.28,177.23 955.40,177.54 955.01,177.45 C955.03,177.37 955.06,177.29 955.09,177.21 C956.11,174.26 958.10,171.66 962.14,166.00 C969.78,155.28 986.19,125.71 997.92,101.50 C1013.04,70.31 1021.45,54.13 1025.36,48.66 C1038.06,30.90 1057.34,18.90 1082.00,13.39 C1090.68,11.45 1114.48,11.02 1120.00,12.70 C1121.93,13.29 1126.20,14.35 1129.50,15.06 C1137.21,16.72 1149.54,22.35 1159.03,28.55 C1171.79,36.88 1186.26,52.69 1196.09,69.05 C1202.71,80.07 1227.82,130.93 1230.42,138.59 C1233.09,146.46 1233.10,146.62 1232.80,171.62 ZM 954.64 178.79 C954.48,181.12 954.26,185.88 954.05,191.50 C953.89,195.80 953.79,199.75 953.74,202.58 C953.65,200.42 953.71,197.36 953.81,193.14 L 953.83 192.36 C953.98,185.35 953.98,181.68 954.64,178.79 ZM 1227.49 206.86 C1230.36,200.84 1231.75,197.25 1232.39,193.53 C1232.45,193.18 1232.50,192.82 1232.55,192.46 L 1232.50 196.74 ZM 955.05 206.95 C956.32,206.71 958.52,206.08 961.63,205.05 C961.34,205.17 961.06,205.29 960.78,205.41 L 960.43 205.56 C957.70,206.73 956.04,207.44 955.05,206.95 ZM 1194.03 274.84 C1197.49,267.83 1201.31,260.05 1205.47,251.50 C1209.29,243.68 1215.41,231.25 1219.90,222.21 C1214.97,232.20 1209.04,244.26 1205.50,251.50 C1201.28,260.13 1197.47,267.89 1194.03,274.84 ZM 1181.83 299.26 C1174.50,313.68 1170.22,321.50 1168.19,324.24 C1170.19,321.54 1174.66,313.34 1181.83,299.26 ZM 580.18 567.02 C579.88,568.60 579.22,569.62 578.06,571.40 C579.22,569.63 579.87,568.59 580.18,567.02 ZM 1014.99 550.58 C1015.00,551.15 1015.00,551.73 1015.00,552.31 C1015.00,551.71 1014.99,551.13 1014.99,550.58 Z" fill="rgb(254,100,0)"/>
  </g>
</svg>

